<?xml version="1.0" encoding="UTF-8"?>
<svg version="1.1" xmlns="http://www.w3.org/2000/svg" width="1024" height="1024">
<path d="M0 0 C337.92 0 675.84 0 1024 0 C1024 337.92 1024 675.84 1024 1024 C686.08 1024 348.16 1024 0 1024 C0 686.08 0 348.16 0 0 Z " fill="#093320" transform="translate(0,0)"/>
<path d="M0 0 C337.92 0 675.84 0 1024 0 C1024 337.92 1024 675.84 1024 1024 C686.08 1024 348.16 1024 0 1024 C0 686.08 0 348.16 0 0 Z M51.27734375 63.19140625 C47.73067561 67.5654275 44.78068857 72.10914351 42 77 C41.40316406 78.0003125 40.80632813 79.000625 40.19140625 80.03125 C29.2889625 99.7259871 29.26080593 121.49169608 29.37006495 143.40224334 C29.3847337 147.47817172 29.36996729 151.55402128 29.35917997 155.6299473 C29.34428955 162.7527046 29.34772572 169.87526385 29.36359787 176.99801636 C29.38713499 187.5898809 29.38178206 198.18159787 29.37088897 208.77347598 C29.3523502 227.6946057 29.36197426 246.61564092 29.38336661 265.5367629 C29.40195064 282.09156916 29.4103431 298.64634373 29.40879822 315.20116043 C29.40870654 316.3008582 29.40861487 317.40055597 29.40852041 318.53357791 C29.40812723 322.99795919 29.4076776 327.46234046 29.40714902 331.92672173 C29.40228268 373.76757076 29.4249098 415.60836362 29.46110525 457.44919519 C29.49310972 494.60399982 29.5051462 531.75875649 29.49902344 568.91357422 C29.49863659 571.30026322 29.49825013 573.68695222 29.49786407 576.07364123 C29.49767272 577.25358967 29.49748138 578.43353811 29.49728423 579.64924257 C29.49632986 585.58923795 29.49541549 591.52923334 29.49454498 597.46922874 C29.49437119 598.64116122 29.4941974 599.8130937 29.49401833 601.02053928 C29.48966179 632.09339551 29.49968009 663.16624658 29.51438284 694.23909914 C29.51490298 695.3446228 29.51542312 696.45014645 29.51595903 697.58917081 C29.51647837 698.69264891 29.51699771 699.79612701 29.5175328 700.93304384 C29.51805054 702.03447219 29.51856828 703.13590054 29.51910171 704.2707055 C29.52014979 706.48881204 29.52121 708.70691857 29.52228243 710.92502509 C29.52965745 726.37601726 29.53175228 741.82700211 29.53028842 757.27799583 C29.52844158 777.18682456 29.53652991 797.09560813 29.56192988 817.00442211 C29.5750774 827.52800951 29.58011586 838.05152485 29.57329134 848.57511868 C29.56957233 855.60950176 29.57681727 862.64381922 29.59288373 869.67818477 C29.60173416 873.68242536 29.60598871 877.68651802 29.59695655 881.69076161 C29.53701482 910.85365234 31.87600807 938.15246029 52 961 C52.66515625 961.81984375 53.3303125 962.6396875 54.015625 963.484375 C68.17434198 980.36995599 89.77405472 991.17125283 111.52302152 993.79295859 C116.79445252 994.23357789 122.08498637 994.1389019 127.37111664 994.13142776 C128.73311991 994.1330793 130.0951227 994.13516644 131.45712471 994.13764787 C135.2015954 994.14319987 138.94604316 994.1425448 142.69051664 994.14087028 C146.76372606 994.14013808 150.83692907 994.1451647 154.91013575 994.1494453 C162.98965966 994.15702015 171.06917697 994.15921809 179.14870406 994.15977435 C188.82614278 994.1606885 198.5035754 994.16735754 208.18101149 994.17412117 C231.57046691 994.19017815 254.95992167 994.19608405 278.34938161 994.20086992 C289.4146847 994.20320611 300.47998727 994.20680878 311.54528996 994.2105653 C349.42505709 994.22340036 387.30482394 994.23411973 425.1845932 994.2375679 C427.56228269 994.23778953 429.93997218 994.23801132 432.31766167 994.23823325 C434.70108233 994.23845389 437.08450299 994.23867438 439.46792364 994.2388947 C444.24944909 994.23933725 449.03097455 994.23978437 453.8125 994.24023438 C454.99803955 994.24034377 456.1835791 994.24045316 457.40504409 994.24056586 C495.84719222 994.24419659 534.2893215 994.26011746 572.73146241 994.28342474 C613.37754746 994.30802319 654.02362174 994.32174074 694.66971445 994.32293582 C699.13200792 994.32310727 703.59430138 994.3233227 708.05659485 994.32357025 C709.15533186 994.32362602 710.25406887 994.32368179 711.38610094 994.32373925 C729.06421682 994.32488966 746.74231334 994.33591078 764.42042268 994.35045731 C782.1907011 994.36482678 799.96095472 994.36805673 817.73123735 994.36001733 C828.28586638 994.35556327 838.8404153 994.35941279 849.3950338 994.37525584 C856.45059019 994.3850162 863.50609055 994.38381748 870.56164644 994.37381961 C874.57823935 994.36843524 878.5946786 994.36769263 882.61125869 994.38032833 C914.40140518 994.47412858 940.34508984 990.78897315 965 969 C965.62390625 968.45988281 966.2478125 967.91976562 966.890625 967.36328125 C981.23614847 954.0568027 988.04811933 936.44624871 993 918 C993.18256564 917.38070856 993.36513129 916.76141712 993.55322922 916.12335927 C994.10554595 913.49837371 994.12681327 911.05748572 994.12880117 908.37390786 C994.13370946 906.64040683 994.13370946 906.64040683 994.13871691 904.87188557 C994.13723328 903.59896364 994.13574966 902.32604171 994.13422108 901.01454639 C994.13617386 899.64556966 994.13856265 898.27659349 994.14134905 896.90761819 C994.1477615 893.12513154 994.14790968 889.34266609 994.14707164 885.56017504 C994.1472409 881.45269231 994.15314432 877.34521724 994.1583125 873.23773831 C994.16764936 865.0815403 994.17156238 856.92534772 994.17383147 848.76914504 C994.17679078 839.00310925 994.18548669 829.23708069 994.19424575 819.4710487 C994.21510391 795.86156876 994.22556269 772.25208757 994.23437535 748.64260057 C994.23858051 737.4742655 994.24380273 726.30593097 994.24905988 715.13759635 C994.2669526 676.91096031 994.28194821 638.68432412 994.28938007 600.45768452 C994.28985483 598.05710392 994.29033072 595.65652331 994.29080774 593.25594271 C994.29104411 592.06546024 994.29128049 590.87497777 994.29152403 589.64842008 C994.29272523 583.61676898 994.29394068 577.58511789 994.29516602 571.5534668 C994.29552624 569.75796045 994.29552624 569.75796045 994.29589374 567.92618124 C994.30378499 529.12477207 994.32721193 490.32339349 994.35972196 451.52199768 C994.39402581 410.50475937 994.41373181 369.48753896 994.41702431 328.47028607 C994.41744185 323.96662755 994.41792142 319.46296904 994.41844749 314.95931053 C994.41857069 313.85037289 994.41869388 312.74143524 994.4188208 311.59889343 C994.42115232 293.75709715 994.43680984 275.91533639 994.45728934 258.07355277 C994.4775533 240.1347335 994.48302196 222.19595687 994.47351871 204.25712828 C994.46830572 193.60272573 994.47417168 182.94846521 994.49605338 172.29408313 C994.50957625 165.17060495 994.50847131 158.04722437 994.49565142 150.92374519 C994.48876465 146.86907272 994.48805106 142.81467147 994.50521151 138.76002339 C994.73592954 116.07717249 994.73592954 116.07717249 990 94 C989.7197541 93.15237903 989.43950821 92.30475807 989.15077001 91.43145162 C980.58655365 67.95131652 962.53487369 48.63481053 940 38 C926.52432025 32.29410942 913.96686309 29.69413096 899.30190754 29.74552441 C897.92874235 29.74313105 896.55557847 29.73986361 895.18241718 29.73580781 C891.41626312 29.72721214 887.6502091 29.73100411 883.88405357 29.73686353 C879.78390103 29.74104131 875.68376649 29.73362764 871.58361834 29.72771102 C864.39977541 29.71895195 857.21596098 29.71763588 850.03211403 29.72121429 C839.34922353 29.72652161 828.66636063 29.72042567 817.98347313 29.71213136 C797.79322513 29.69688655 777.60298966 29.69518682 757.41273711 29.69765439 C741.82099584 29.69948679 726.22925868 29.69772856 710.63751793 29.69342995 C708.39774156 29.69282755 706.15796518 29.69222635 703.91818881 29.69162634 C700.54307475 29.69071909 697.1679607 29.68981043 693.79284665 29.68889399 C662.40975581 29.68046358 631.02666652 29.67612934 599.64357471 29.68030071 C597.86872577 29.68053528 597.86872577 29.68053528 596.05802129 29.68077458 C590.06089301 29.68158037 584.06376475 29.68242614 578.06663648 29.68328788 C576.87558317 29.68345897 575.68452985 29.68363006 574.45738401 29.68380633 C572.04878401 29.68415298 569.640184 29.68450151 567.23158399 29.68485192 C529.75651218 29.69020873 492.2814639 29.68228019 454.80639648 29.66381836 C412.70426831 29.64310135 370.60215472 29.63237513 328.50002116 29.63639385 C324.01053441 29.63678919 319.52104765 29.63715074 315.0315609 29.63749123 C313.92613371 29.63758196 312.82070653 29.63767269 311.68178155 29.63776617 C294.99525904 29.63893208 278.30875126 29.63228432 261.62223244 29.62167931 C242.64327295 29.60962966 223.66434589 29.6080656 204.68538592 29.62046947 C194.06610692 29.62709923 183.44690544 29.62546431 172.82763264 29.61188096 C165.73032606 29.6036353 158.63307753 29.60633556 151.53577566 29.61785623 C147.49455534 29.62411148 143.45348626 29.6257165 139.4122747 29.61399289 C135.72786726 29.60340304 132.04373826 29.60689274 128.35934544 29.62109742 C126.42662041 29.62506595 124.49388167 29.61448707 122.56118599 29.60312036 C94.51024279 29.77567046 69.72166785 42.18294231 51.27734375 63.19140625 Z " fill="#FEFEFE" transform="translate(0,0)"/>
<path d="M0 0 C1.58554687 0.5259375 1.58554687 0.5259375 3.203125 1.0625 C25.01916143 9.28634619 38.82431983 25.27150207 48.6640625 45.90234375 C52.57925557 54.98055458 55.20067358 64.15092212 57.1875 73.8125 C57.34234863 74.55693359 57.49719727 75.30136719 57.65673828 76.06835938 C60.53908102 91.01012306 61.38153931 106.00198951 61.3125 121.1875 C61.30926727 122.485168 61.30926727 122.485168 61.30596924 123.80905151 C61.24055798 140.34429802 60.20250744 156.59804443 58 173 C57.85081116 174.11634827 57.85081116 174.11634827 57.6986084 175.25524902 C54.66614352 197.7445695 50.70090581 219.91210278 45.4732666 241.9954834 C44.98548855 244.06146311 44.50339139 246.12870527 44.02246094 248.19628906 C40.04903279 265.24672536 35.75801301 282.15399818 30.64044189 298.90216064 C29.88975432 301.36112211 29.14181033 303.82091065 28.39404297 306.28076172 C23.3167293 322.9807056 23.3167293 322.9807056 20.97412109 330.63354492 C18.25124889 339.53524609 15.54505572 348.43692962 13.01733398 357.39648438 C11.7597145 361.85111928 10.47703326 366.29834586 9.1953125 370.74609375 C1.54423161 397.34179564 -5.99978171 423.7515427 -11 451 C-11.18981445 451.9995874 -11.37962891 452.9991748 -11.57519531 454.02905273 C-12.76977802 460.63691989 -13.31031996 466.97690451 -13.25 473.6875 C-13.25773438 474.55955078 -13.26546875 475.43160156 -13.2734375 476.33007812 C-13.24880634 484.58767534 -12.56765315 492.52948417 -7 499 C-2.27193036 502.59333292 1.34447827 503.66159622 7.2734375 503.375 C34.93953453 499.56992075 61.46087431 470.66039381 77.91796875 449.640625 C79.82142987 447.22647919 81.80102117 444.89944656 83.81835938 442.58032227 C90.77895322 434.54609902 97.02165352 426.01925584 103.24902344 417.41113281 C104.9159874 415.11568717 106.59949281 412.83352383 108.2890625 410.5546875 C116.12484781 399.93347896 123.29775654 388.96275638 130.27685547 377.76269531 C131.94789427 375.08354044 133.63094895 372.41228826 135.31640625 369.7421875 C143.29089804 357.05375752 150.740839 344.10871212 158 331 C158.52029785 330.06913574 159.0405957 329.13827148 159.57666016 328.17919922 C180.00949997 291.58335314 196.48428137 253.65264323 210 214 C210.33225586 213.03449219 210.66451172 212.06898438 211.00683594 211.07421875 C225.13014484 169.73065328 241.4221755 109.38637988 222.1796875 67.09765625 C218.06762894 59.78581702 212.83234274 53.41819668 205 50 C201.31848092 49.28560432 197.74657123 49.01400587 194 49 C192.88275142 45.96746814 192.66937082 43.82510998 193.8828125 40.796875 C203.16015209 24.36273059 218.87542697 11.06593021 237 5.6875 C247.0930543 3.57021977 256.38356067 4.96501855 265.22265625 10.35546875 C267.25007072 11.81255082 269.12667511 13.3503557 271 15 C271.59425781 15.50144531 272.18851563 16.00289062 272.80078125 16.51953125 C286.73595223 29.21876689 292.23280756 50.72500186 293.15234375 69.03320312 C293.5217705 81.37944499 293.4098195 93.69286859 291.35058594 105.89550781 C290.95716077 108.25715469 290.60864436 110.62384927 290.2578125 112.9921875 C278.76057219 187.47721244 243.24141601 259.30386568 206 324 C205.16082031 325.46373047 205.16082031 325.46373047 204.3046875 326.95703125 C192.95245238 346.7327285 181.1358477 366.24854605 168.29394531 385.09814453 C166.85317722 387.21580178 165.42291406 389.3403906 163.9921875 391.46484375 C152.96021813 407.78408625 141.33063144 423.63828128 129 439 C128.47519043 439.65629395 127.95038086 440.31258789 127.40966797 440.98876953 C121.44040331 448.44378013 115.42587815 455.80954956 108.96875 462.8515625 C107.15344263 464.83255268 105.38307216 466.84326567 103.625 468.875 C94.01646579 479.88802993 84.12402541 490.50019561 73 500 C72.06542969 500.82371094 71.13085938 501.64742187 70.16796875 502.49609375 C42.34868214 526.82153047 10.71566643 543.40471353 -27 541 C-43.68925873 539.28421284 -59.71104288 531.46122865 -70.41015625 518.35546875 C-80.44353728 503.49028752 -83.25255238 488.25549741 -83.3125 470.625 C-83.31511841 469.89168457 -83.31773682 469.15836914 -83.32043457 468.40283203 C-83.32556259 454.94397953 -81.88910734 442.16343282 -79 429 C-78.82919922 428.19127441 -78.65839844 427.38254883 -78.48242188 426.54931641 C-76.76416772 418.4684682 -74.62730863 410.57914016 -72.11328125 402.70703125 C-70.70723309 398.02513756 -69.51632529 393.29970426 -68.3125 388.5625 C-65.94964615 379.32672665 -63.3253539 370.18610067 -60.5625 361.0625 C-60.36945282 360.42487732 -60.17640564 359.78725464 -59.97750854 359.13031006 C-59.01507499 355.95345117 -58.05135711 352.77698365 -57.08740234 349.60058594 C-52.09539262 333.07113837 -47.40780113 316.45408198 -42.78466797 299.81835938 C-42.08052001 297.28921063 -41.37164154 294.76146735 -40.66015625 292.234375 C-38.37182542 284.09108599 -36.15843661 275.92868354 -34 267.75 C-33.77497803 266.90679199 -33.54995605 266.06358398 -33.31811523 265.19482422 C-28.6827957 247.48623821 -25.08406813 229.73308766 -22.4375 211.625 C-22.13727109 209.60487747 -21.83689451 207.58477688 -21.53637695 205.56469727 C-19.09895925 189.07494412 -16.74746154 172.5792407 -15 156 C-14.88285645 154.89317871 -14.76571289 153.78635742 -14.64501953 152.64599609 C-12.94123859 135.58540211 -12.77467723 118.50532628 -12.6875 101.375 C-12.67787231 100.30872375 -12.66824463 99.24244751 -12.6583252 98.14385986 C-12.37592352 64.43802679 -12.37592352 64.43802679 -27 35 C-36.68076257 27.16240149 -45.97058782 27.07960471 -58 28 C-62.03181336 28.79771277 -65.36379459 30.10649212 -69 32 C-69.99386719 32.50917969 -70.98773438 33.01835937 -72.01171875 33.54296875 C-97.86883386 47.72058394 -111.85628816 75.89362608 -119.94848633 103.19213867 C-126.52903617 126.65370964 -128.14462284 151.93468647 -118.76953125 174.86328125 C-118 177 -118 177 -118 180 C-135.50696992 180.49444371 -151.03601235 179.28320395 -165.3125 167.8125 C-174.46916533 159.13175283 -179.86558646 147.17971629 -180.6015625 134.625 C-180.64021257 132.4169911 -180.64713369 130.20823623 -180.625 128 C-180.6151709 126.82373047 -180.6053418 125.64746094 -180.59521484 124.43554688 C-179.97411916 101.00590664 -168.89423946 80.3930898 -155 62 C-154.35160156 61.12859375 -153.70320313 60.2571875 -153.03515625 59.359375 C-127.15027156 26.17107755 -88.97188026 2.22679387 -47.0234375 -3.67041016 C-31.16093922 -5.39960692 -15.20383135 -5.04581302 0 0 Z " fill="#F2EECA" transform="translate(456,233)"/>
<path d="M0 0 C0.66 0 1.32 0 2 0 C2.33773437 0.77085937 2.67546875 1.54171875 3.0234375 2.3359375 C3.46945312 3.33882812 3.91546875 4.34171875 4.375 5.375 C4.81585937 6.37273438 5.25671875 7.37046875 5.7109375 8.3984375 C6.86712444 11.08022479 6.86712444 11.08022479 9 13 C-3.30068337 26.81776765 -3.30068337 26.81776765 -11 32 C-11 31.34 -11 30.68 -11 30 C-11.680625 29.731875 -12.36125 29.46375 -13.0625 29.1875 C-16.39710809 27.83946694 -19.69743237 26.42463702 -23 25 C-23 24.34 -23 23.68 -23 23 C-22.21496094 22.6596875 -21.42992187 22.319375 -20.62109375 21.96875 C-9.73574938 16.94679972 -4.17844446 11.21172676 0 0 Z " fill="#81978D" transform="translate(967,944)"/>
<path d="M0 0 C0.66 0.33 1.32 0.66 2 1 C-1.86364295 5.48717034 -5.74790208 9.87675353 -10 14 C-10.66 13.67 -11.32 13.34 -12 13 C-10.18777319 11.02058257 -8.37523172 9.04145495 -6.5625 7.0625 C-6.04623047 6.49853516 -5.52996094 5.93457031 -4.99804688 5.35351562 C-1.11328125 1.11328125 -1.11328125 1.11328125 0 0 Z " fill="#DEE5C9" transform="translate(667,253)"/>
<path d="M0 0 C0 3 0 3 -1.8984375 5.26171875 C-2.71570312 6.06222656 -3.53296875 6.86273438 -4.375 7.6875 C-5.18710937 8.49574219 -5.99921875 9.30398437 -6.8359375 10.13671875 C-9 12 -9 12 -11 12 C-9.60609461 8.84280428 -7.96365028 6.7187347 -5.5 4.3125 C-4.8915625 3.71050781 -4.283125 3.10851563 -3.65625 2.48828125 C-2 1 -2 1 0 0 Z " fill="#203E2F" transform="translate(64,51)"/>
<path d="M0 0 C0.66 0 1.32 0 2 0 C0.44499019 3.81684226 -2.03595495 6.19195732 -5 9 C-5.66 8.67 -6.32 8.34 -7 8 C-5.88200014 6.66079162 -4.75538103 5.32877444 -3.625 4 C-2.68527344 2.88625 -2.68527344 2.88625 -1.7265625 1.75 C-1.15679687 1.1725 -0.58703125 0.595 0 0 Z " fill="#DCE4C3" transform="translate(310,284)"/>
</svg>
