<svg xmlns="http://www.w3.org/2000/svg" viewBox="0 0 512 512">
  <defs>
    <clipPath id="rounded-corners">
      <rect x="0" y="0" width="512" height="512" rx="112" ry="112" />
    </clipPath>
  </defs>
  <rect width="512" height="512" fill="#0A3323" clip-path="url(#rounded-corners)"/>
  <path d="M251.2,165.2c1.7,3.1,3.3,6.3,4.9,9.5c11.6,23.3,23.2,46.7,34.8,70c17.6,35.2,35.1,70.5,52.7,105.7c2.3,4.6,4.7,9.3,7,13.9c1,1.9,1.9,3.9,2.9,5.8c0.7,1.4,1.4,2.9,2.1,4.3l0,0c0.3-0.7,0.7-1.4,1-2.1c1-2.1,2.1-4.3,3.1-6.4c5.1-10.7,10.2-21.3,15.2-32c10.4-21.7,20.7-43.5,31.1-65.2c10-20.9,19.9-41.8,29.9-62.7c1.4-2.9,2.7-5.9,4.1-8.8c0.6-1.3,1.3-2.6,1.9-3.9h12.5c-1.3,2.7-2.6,5.3-3.9,8c-10.3,21.5-20.5,43.1-30.8,64.6c-10.7,22.4-21.3,44.8-32,67.2c-9.7,20.3-19.3,40.7-29,61c-1.7,3.6-3.4,7.1-5.1,10.7c-0.8,1.6-1.6,3.2-2.3,4.8c-0.3,0.6-0.6,1.2-0.8,1.8c-1.5,3.2-4.8,5.4-8.4,5.4c-3.6,0-6.9-2.2-8.4-5.4c-0.3-0.6-0.6-1.2-0.8-1.8c-0.8-1.6-1.6-3.2-2.3-4.8c-1.7-3.6-3.4-7.1-5.1-10.7c-21.2-44.5-42.3-88.9-63.5-133.4c-11.6-24.3-23.2-48.7-34.8-73c-1.6-3.4-3.2-6.8-4.8-10.2l0,0V165.2H251.2z" fill="#F7F4D5"/>
</svg>
